<?xml version="1.0" standalone="no"?>
<!DOCTYPE svg PUBLIC "-//W3C//DTD SVG 20010904//EN"
 "http://www.w3.org/TR/2001/REC-SVG-20010904/DTD/svg10.dtd">
<svg version="1.0" xmlns="http://www.w3.org/2000/svg"
 width="614.000000pt" height="557.000000pt" viewBox="0 0 614.000000 557.000000"
 preserveAspectRatio="xMidYMid meet">

<g transform="translate(0.000000,557.000000) scale(0.100000,-0.100000)" stroke="none">
<path d="M2641 5216 c-48 -17 -108 -71 -134 -119 -20 -38 -22 -56 -22 -197 0
-151 1 -156 28 -202 41 -70 99 -108 190 -123 l37 -6 0 -55 c0 -48 -3 -57 -20
-61 -43 -11 -167 -76 -226 -118 -127 -91 -247 -246 -307 -395 -59 -149 -57
-106 -57 -1454 0 -1347 -2 -1305 58 -1459 87 -224 274 -412 492 -497 132 -50
200 -60 419 -60 176 0 209 3 293 24 215 55 402 188 522 373 58 90 89 161 118
270 l23 88 0 1260 0 1260 -22 85 c-32 122 -109 270 -186 361 -111 130 -274
234 -432 277 l-70 19 -3 40 -3 41 164 4 c159 3 166 5 223 33 65 34 117 93 134
153 5 20 10 89 10 152 0 94 -4 123 -21 160 -25 55 -71 105 -124 133 -39 22
-48 22 -545 24 -380 1 -513 -1 -539 -11z"/>
</g>
</svg>
